# Made in Blockbench 5.1.6
mtllib materials.mtl

o mesh
v 0.01730895615763411 0.1028632759403443 0.01562500000000001
v -0.02544356175807447 0.22032485353858283 0.015624999999999983
v 0.01730895615763411 0.1028632759403443 -0.015624999999999986
v -0.02544356175807447 0.22032485353858283 -0.015625000000000014
v -0.012056438241925527 0.09217514646141717 0.015625000000000014
v -0.054808956157634106 0.2096367240596557 0.015624999999999986
v -0.012056438241925527 0.09217514646141715 -0.015624999999999983
v -0.054808956157634106 0.2096367240596557 -0.01562500000000001
vt 0.5 0.75
vt 0.375 0.75
vt 0.375 0.6875
vt 0.5 0.6875
vt 0.5 0.5625
vt 0.5 0.625
vt 0.375 0.625
vt 0.375 0.5625
vt 0.1875 0.375
vt 0.25 0.375
vt 0.25 0.5
vt 0.1875 0.5
vt 0.375 0.375
vt 0.375 0.5
vt 0.3125 0.5
vt 0.3125 0.375
vt 0.5 0.4375
vt 0.5 0.5
vt 0.4375 0.5
vt 0.4375 0.4375
vt 0.625 1
vt 0.5625 1
vt 0.5625 0.9375
vt 0.625 0.9375
vn 0.9396926207859084 0.34202014332566866 -1.0202543719282249e-16
vn -0.9396926207859084 -0.34202014332566866 1.0202543719282249e-16
vn 2.30140117386467e-18 2.3713257458380586e-16 1
vn -2.30140117386467e-18 -2.3713257458380586e-16 -1
vn 0.34202014332566866 -0.9396926207859085 1.9916071078323052e-16
vn -0.34202014332566866 0.9396926207859085 -1.9916071078323052e-16
usemtl m_65a63322-7338-5654-4406-cbcbe16acf9f
f 2/1/1 1/2/1 3/3/1 4/4/1
f 7/5/2 5/6/2 6/7/2 8/8/2
f 5/9/3 1/10/3 2/11/3 6/12/3
f 4/13/4 3/14/4 7/15/4 8/16/4
f 3/17/5 1/18/5 5/19/5 7/20/5
f 6/21/6 2/22/6 4/23/6 8/24/6
o beveled_cuboid
v 0.046875 0.153125 0.046875
v 0.046875 0.153125 -0.046875
v -0.046875 0.153125 0.046875
v -0.046875 0.153125 -0.046875
v 0.046875 -0.003124999999999989 0.046875
v 0.046875 -0.003124999999999989 -0.046875
v -0.046875 -0.003124999999999989 0.046875
v -0.046875 -0.003124999999999989 -0.046875
v -0.0625 0.03593750000000001 0.046875
v -0.0625 0.11406250000000001 0.046875
v -0.0625 0.03593750000000001 -0.046875
v -0.0625 0.11406250000000001 -0.046875
v 0.0625 0.03593750000000001 0.046875
v 0.0625 0.11406250000000001 0.046875
v 0.0625 0.03593750000000001 -0.046875
v 0.0625 0.11406250000000001 -0.046875
v 0.046875 0.03593750000000001 -0.0625
v 0.046875 0.11406250000000001 -0.0625
v -0.046875 0.03593750000000001 -0.0625
v -0.046875 0.11406250000000001 -0.0625
v 0.046875 0.03593750000000001 0.0625
v 0.046875 0.11406250000000001 0.0625
v -0.046875 0.03593750000000001 0.0625
v -0.046875 0.11406250000000001 0.0625
vt 0.296875 0.9650625
vt 0.203125 0.9650625
vt 0.203125 0.9025625
vt 0.296875 0.9025625
vt 0.296875 0.6525624999999999
vt 0.296875 0.7150624999999999
vt 0.203125 0.7150624999999999
vt 0.203125 0.6525624999999999
vt 0.125 0.875
vt 0.125 1
vt 0 1
vt 0 0.875
vt 0 0.6875
vt 0.125 0.6875
vt 0.125 0.8125
vt 0 0.8125
vt 0.109375 0.5275624999999999
vt 0.109375 0.5900624999999999
vt 0.015625 0.5900624999999999
vt 0.015625 0.5275624999999999
vt 0.484375 0.9650625
vt 0.390625 0.9650625
vt 0.390625 0.9025625
vt 0.484375 0.9025625
vt 0.296875 1
vt 0.203125 1
vt 0.203125 0.9650625
vt 0.296875 0.9650625
vt 0.296875 0.7150624999999999
vt 0.296875 0.75
vt 0.203125 0.75
vt 0.203125 0.7150624999999999
vt 0.109375 0.5900624999999999
vt 0.109375 0.625
vt 0.015625 0.625
vt 0.015625 0.5900624999999999
vt 0.484375 1
vt 0.390625 1
vt 0.390625 0.9650625
vt 0.484375 0.9650625
vt 0.203125 0.9025625
vt 0.203125 0.867625
vt 0.296875 0.867625
vt 0.296875 0.9025625
vt 0.203125 0.617625
vt 0.296875 0.617625
vt 0.296875 0.6525624999999999
vt 0.203125 0.6525624999999999
vt 0.015625 0.492625
vt 0.109375 0.492625
vt 0.109375 0.5275624999999999
vt 0.015625 0.5275624999999999
vt 0.390625 0.9025625
vt 0.390625 0.867625
vt 0.484375 0.867625
vt 0.484375 0.9025625
vt 0.5625 0.77935625
vt 0.5846 0.77935625
vt 0.5846 0.84185625
vt 0.5625 0.84185625
vt 0.6029 0.59185625
vt 0.6029 0.52935625
vt 0.625 0.52935625
vt 0.625 0.59185625
vt 0.0404 0.34185625
vt 0.0404 0.27935625
vt 0.0625 0.27935625
vt 0.0625 0.34185625
vt 0.4375 0.27935625
vt 0.4596 0.27935625
vt 0.4596 0.34185625
vt 0.4375 0.34185625
vt 0.61395 0.49621249999999995
vt 0.625 0.52935625
vt 0.6029 0.52935625
vt 0.44855 0.24621249999999995
vt 0.4596 0.27935625
vt 0.4375 0.27935625
vt 0.57355 0.7462125
vt 0.5846 0.77935625
vt 0.5625 0.77935625
vt 0.05145 0.24621249999999995
vt 0.0625 0.27935625
vt 0.0404 0.27935625
vt 0.61395 0.625
vt 0.6029 0.59185625
vt 0.625 0.59185625
vt 0.44855 0.375
vt 0.4375 0.34185625
vt 0.4596 0.34185625
vt 0.57355 0.875
vt 0.5625 0.84185625
vt 0.5846 0.84185625
vt 0.05145 0.375
vt 0.0404 0.34185625
vt 0.0625 0.34185625
vn 1 0 0
vn -1 0 0
vn 0 1 0
vn 0 -1 0
vn 0 0 1
vn 0 0 -1
vn 0.9284766908852594 0.3713906763541038 0
vn -0.9284766908852594 0.3713906763541038 0
vn 0 0.3713906763541038 0.9284766908852594
vn 0 0.3713906763541038 -0.9284766908852594
vn 0.9284766908852594 -0.3713906763541038 0
vn -0.9284766908852594 -0.3713906763541038 0
vn 0 -0.3713906763541038 0.9284766908852594
vn 0 -0.3713906763541038 -0.9284766908852594
vn 0.7071067811865476 0 -0.7071067811865476
vn 0.7071067811865476 0 0.7071067811865476
vn -0.7071067811865476 0 -0.7071067811865476
vn -0.7071067811865476 0 0.7071067811865476
vn 0.6804138174397717 -0.2721655269759087 0.6804138174397717
vn -0.6804138174397717 -0.2721655269759087 0.6804138174397717
vn 0.6804138174397717 -0.2721655269759087 -0.6804138174397717
vn -0.6804138174397717 -0.2721655269759087 -0.6804138174397717
vn 0.6804138174397717 0.2721655269759087 0.6804138174397717
vn -0.6804138174397717 0.2721655269759087 0.6804138174397717
vn 0.6804138174397717 0.2721655269759087 -0.6804138174397717
vn -0.6804138174397717 0.2721655269759087 -0.6804138174397717
usemtl m_65a63322-7338-5654-4406-cbcbe16acf9f
f 24/25/7 22/26/7 21/27/7 23/28/7
f 17/29/8 18/30/8 20/31/8 19/32/8
f 9/33/9 10/34/9 12/35/9 11/36/9
f 16/37/10 14/38/10 13/39/10 15/40/10
f 29/41/11 30/42/11 32/43/11 31/44/11
f 28/45/12 26/46/12 25/47/12 27/48/12
f 10/49/13 9/50/13 22/51/13 24/52/13
f 18/53/14 11/54/14 12/55/14 20/56/14
f 30/57/15 9/58/15 11/59/15 32/60/15
f 12/61/16 10/62/16 26/63/16 28/64/16
f 21/65/17 13/66/17 14/67/17 23/68/17
f 16/69/18 15/70/18 17/71/18 19/72/18
f 15/73/19 13/74/19 29/75/19 31/76/19
f 25/77/20 14/78/20 16/79/20 27/80/20
f 23/81/21 25/82/21 26/83/21 24/84/21
f 30/85/22 29/86/22 21/87/22 22/88/22
f 28/89/23 27/90/23 19/91/23 20/92/23
f 17/93/24 31/94/24 32/95/24 18/96/24
f 13/97/25 21/98/25 29/99/25
f 15/100/26 31/101/26 17/102/26
f 14/103/27 25/104/27 23/105/27
f 16/106/28 19/107/28 27/108/28
f 9/109/29 30/110/29 22/111/29
f 11/112/30 18/113/30 32/114/30
f 10/115/31 24/116/31 26/117/31
f 12/118/32 28/119/32 20/120/32