# Made in Blockbench 5.1.6
mtllib materials.mtl

o mesh
v 0.01072330470336319 0.5821067811865475 0.375
v -0.5196067811865474 0.05177669529663681 0.3749999999999999
v 0.5410533905932738 0.05177669529663692 0.3750000000000001
v 0.010723304703363273 -0.4785533905932738 0.375
v 0.01072330470336319 0.5821067811865475 0.5
v -0.5196067811865474 0.05177669529663681 0.4999999999999999
v 0.5410533905932738 0.05177669529663692 0.5000000000000001
v 0.010723304703363246 -0.4785533905932738 0.5
vt 0.375 1
vt 0 1
vt 0 0.625
vt 0.375 0.625
vt 0.375 0.21875
vt 0.375 0.59375
vt 0 0.59375
vt 0 0.21875
vt 0.40625 0.3125
vt 0.46875 0.3125
vt 0.46875 0.6875
vt 0.40625 0.6875
vt 0.5625 0.3125
vt 0.5625 0.6875
vt 0.5 0.6875
vt 0.5 0.3125
vt 0.65625 0.3125
vt 0.65625 0.6875
vt 0.59375 0.6875
vt 0.59375 0.3125
vt 0.75 0.6875
vt 0.6875 0.6875
vt 0.6875 0.3125
vt 0.75 0.3125
vn 2.220446049250313e-16 0 -1
vn -2.220446049250313e-16 0 1
vn -0.7071067811865476 0.7071067811865475 -1.5700924586837752e-16
vn 0.7071067811865476 -0.7071067811865475 1.5700924586837752e-16
vn 0.7071067811865475 0.7071067811865476 1.570092458683775e-16
vn -0.7071067811865475 -0.7071067811865476 -1.570092458683775e-16
usemtl m_fcfb07d2-27c9-6e5e-2cbd-bb84d9f109e0
f 2/1/1 1/2/1 3/3/1 4/4/1
f 7/5/2 5/6/2 6/7/2 8/8/2
f 5/9/3 1/10/3 2/11/3 6/12/3
f 4/13/4 3/14/4 7/15/4 8/16/4
f 3/17/5 1/18/5 5/19/5 7/20/5
f 6/21/6 2/22/6 4/23/6 8/24/6
o mesh
v 0.40121358640099525 0.39742232566475627 0.3218750000000001
v 0.33492232566475644 0.4637135864009951 0.3218750000000001
v 0.15814563036811952 0.1543543696318806 0.321875
v 0.0918543696318807 0.2206456303681194 0.321875
v 0.40121358640099525 0.39742232566475627 0.4156250000000001
v 0.33492232566475644 0.4637135864009951 0.4156250000000001
v 0.15814563036811952 0.1543543696318806 0.415625
v 0.09185436963188069 0.2206456303681194 0.415625
vt 0.453125 0.28125
vt 0.40625 0.28125
vt 0.40625 0.109375
vt 0.453125 0.109375
vt 0.546875 0.109375
vt 0.546875 0.28125
vt 0.5 0.28125
vt 0.5 0.109375
vt 0.875 0.203125
vt 0.921875 0.203125
vt 0.921875 0.25
vt 0.875 0.25
vt 0.921875 0.109375
vt 0.921875 0.15625
vt 0.875 0.15625
vt 0.875 0.109375
vt 0.640625 0.109375
vt 0.640625 0.28125
vt 0.59375 0.28125
vt 0.59375 0.109375
vt 0.734375 0.28125
vt 0.6875 0.28125
vt 0.6875 0.109375
vt 0.734375 0.109375
vn 2.220446049250313e-16 0 -1
vn -2.220446049250313e-16 0 1
vn 0.7071067811865476 0.7071067811865475 1.5700924586837752e-16
vn -0.7071067811865476 -0.7071067811865475 -1.5700924586837752e-16
vn 0.7071067811865475 -0.7071067811865476 1.570092458683775e-16
vn -0.7071067811865475 0.7071067811865476 -1.570092458683775e-16
usemtl m_fcfb07d2-27c9-6e5e-2cbd-bb84d9f109e0
f 10/25/7 9/26/7 11/27/7 12/28/7
f 15/29/8 13/30/8 14/31/8 16/32/8
f 13/33/9 9/34/9 10/35/9 14/36/9
f 12/37/10 11/38/10 15/39/10 16/40/10
f 11/41/11 9/42/11 13/43/11 15/44/11
f 14/45/12 10/46/12 12/47/12 16/48/12
o mesh
v -0.3349223256647562 0.4637135864009951 0.32187499999999997
v -0.401213586400995 0.39742232566475627 0.32187499999999997
v -0.09185436963188047 0.2206456303681194 0.321875
v -0.1581456303681193 0.1543543696318806 0.321875
v -0.3349223256647562 0.4637135864009951 0.41562499999999997
v -0.401213586400995 0.39742232566475627 0.41562499999999997
v -0.09185436963188048 0.2206456303681194 0.415625
v -0.1581456303681193 0.1543543696318806 0.415625
vt 0.828125 0.6875
vt 0.78125 0.6875
vt 0.78125 0.515625
vt 0.828125 0.515625
vt 0.828125 0.296875
vt 0.828125 0.46875
vt 0.78125 0.46875
vt 0.78125 0.296875
vt 0.09375 0.046875
vt 0.140625 0.046875
vt 0.140625 0.09375
vt 0.09375 0.09375
vt 0.953125 0.859375
vt 0.953125 0.90625
vt 0.90625 0.90625
vt 0.90625 0.859375
vt 0.828125 0.078125
vt 0.828125 0.25
vt 0.78125 0.25
vt 0.78125 0.078125
vt 0.046875 0.1875
vt 0 0.1875
vt 0 0.015625
vt 0.046875 0.015625
vn 2.220446049250313e-16 0 -1
vn -2.220446049250313e-16 0 1
vn -0.7071067811865476 0.7071067811865475 -1.5700924586837752e-16
vn 0.7071067811865476 -0.7071067811865475 1.5700924586837752e-16
vn 0.7071067811865475 0.7071067811865476 1.570092458683775e-16
vn -0.7071067811865475 -0.7071067811865476 -1.570092458683775e-16
usemtl m_fcfb07d2-27c9-6e5e-2cbd-bb84d9f109e0
f 18/49/13 17/50/13 19/51/13 20/52/13
f 23/53/14 21/54/14 22/55/14 24/56/14
f 21/57/15 17/58/15 18/59/15 22/60/15
f 20/61/16 19/62/16 23/63/16 24/64/16
f 19/65/17 17/66/17 21/67/17 23/68/17
f 22/69/18 18/70/18 20/71/18 24/72/18
o mesh
v 0.232019412576836 0.1398398041922786 0.309375
v 0.07733980419227876 0.2945194125768359 0.30937499999999996
v 0.1657281518405972 0.0735485434560398 0.309375
v 0.011048543456039953 0.22822815184059708 0.30937499999999996
v 0.232019412576836 0.1398398041922786 0.403125
v 0.07733980419227876 0.2945194125768359 0.40312499999999996
v 0.16572815184059717 0.0735485434560398 0.403125
v 0.011048543456039926 0.22822815184059708 0.40312499999999996
vt 0.921875 1
vt 0.8125 1
vt 0.8125 0.953125
vt 0.921875 0.953125
vt 0.203125 0.140625
vt 0.203125 0.1875
vt 0.09375 0.1875
vt 0.09375 0.140625
vt 0.8125 0.796875
vt 0.859375 0.796875
vt 0.859375 0.90625
vt 0.8125 0.90625
vt 0.296875 0.078125
vt 0.296875 0.1875
vt 0.25 0.1875
vt 0.25 0.078125
vt 0.390625 0.015625
vt 0.390625 0.0625
vt 0.34375 0.0625
vt 0.34375 0.015625
vt 0.484375 0.0625
vt 0.4375 0.0625
vt 0.4375 0.015625
vt 0.484375 0.015625
vn 2.220446049250313e-16 0 -1
vn -2.220446049250313e-16 0 1
vn 0.7071067811865476 0.7071067811865475 1.5700924586837752e-16
vn -0.7071067811865476 -0.7071067811865475 -1.5700924586837752e-16
vn 0.7071067811865475 -0.7071067811865476 1.570092458683775e-16
vn -0.7071067811865475 0.7071067811865476 -1.570092458683775e-16
usemtl m_fcfb07d2-27c9-6e5e-2cbd-bb84d9f109e0
f 26/73/19 25/74/19 27/75/19 28/76/19
f 31/77/20 29/78/20 30/79/20 32/80/20
f 29/81/21 25/82/21 26/83/21 30/84/21
f 28/85/22 27/86/22 31/87/22 32/88/22
f 27/89/23 25/90/23 29/91/23 31/92/23
f 30/93/24 26/94/24 28/95/24 32/96/24
o mesh
v -0.07733980419227854 0.2945194125768359 0.30937499999999996
v -0.23201941257683578 0.1398398041922786 0.3093749999999999
v -0.011048543456039697 0.22822815184059708 0.30937499999999996
v -0.16572815184059694 0.0735485434560398 0.3093749999999999
v -0.07733980419227854 0.2945194125768359 0.40312499999999996
v -0.23201941257683578 0.1398398041922786 0.4031249999999999
v -0.011048543456039724 0.22822815184059708 0.40312499999999996
v -0.16572815184059697 0.0735485434560398 0.4031249999999999
vt 0.984375 0.75
vt 0.875 0.75
vt 0.875 0.703125
vt 0.984375 0.703125
vt 0.984375 0.609375
vt 0.984375 0.65625
vt 0.875 0.65625
vt 0.875 0.609375
vt 0.875 0.453125
vt 0.921875 0.453125
vt 0.921875 0.5625
vt 0.875 0.5625
vt 0.921875 0.296875
vt 0.921875 0.40625
vt 0.875 0.40625
vt 0.875 0.296875
vt 0.578125 0.015625
vt 0.578125 0.0625
vt 0.53125 0.0625
vt 0.53125 0.015625
vt 0.671875 0.0625
vt 0.625 0.0625
vt 0.625 0.015625
vt 0.671875 0.015625
vn 2.220446049250313e-16 0 -1
vn -2.220446049250313e-16 0 1
vn -0.7071067811865476 0.7071067811865475 -1.5700924586837752e-16
vn 0.7071067811865476 -0.7071067811865475 1.5700924586837752e-16
vn 0.7071067811865475 0.7071067811865476 1.570092458683775e-16
vn -0.7071067811865475 -0.7071067811865476 -1.570092458683775e-16
usemtl m_fcfb07d2-27c9-6e5e-2cbd-bb84d9f109e0
f 34/97/25 33/98/25 35/99/25 36/100/25
f 39/101/26 37/102/26 38/103/26 40/104/26
f 37/105/27 33/106/27 34/107/27 38/108/27
f 36/109/28 35/110/28 39/111/28 40/112/28
f 35/113/29 33/114/29 37/115/29 39/116/29
f 38/117/30 34/118/30 36/119/30 40/120/30
o plane
v -0.051776695296636754 0.26895630368119416 0.34374999999999983
v -0.20645630368119405 0.1142766952966369 0.34374999999999983
v 0.4564563036811943 -0.2392766952966369 0.34375000000000017
v 0.301776695296637 -0.39395630368119416 0.34375000000000017
vt 0.765625 0.890625
vt 0.765625 1
vt 0.40625 1
vt 0.40625 0.890625
vn -4.575584737275976e-16 2.3551386880256634e-16 1
usemtl m_fcfb07d2-27c9-6e5e-2cbd-bb84d9f109e0
f 41/121/31 42/122/31 44/123/31 43/124/31
o plane
v 0.20645630368119428 0.1142766952966369 0.33749999999999997
v 0.05177669529663699 0.26895630368119416 0.33749999999999997
v -0.30177669529663675 -0.39395630368119416 0.3375000000000001
v -0.45645630368119405 -0.2392766952966369 0.3375000000000001
vt 0.765625 0.734375
vt 0.765625 0.84375
vt 0.40625 0.84375
vt 0.40625 0.734375
vn 1.3469263877534958e-17 2.3551386880256634e-16 1
usemtl m_fcfb07d2-27c9-6e5e-2cbd-bb84d9f109e0
f 45/125/32 46/126/32 48/127/32 47/128/32