# Made in Blockbench 5.1.6
mtllib materials.mtl

o mesh
v 0.5 0.5 0.5
v 0.5 0.5 -0.5
v 0.5 -0.5 0.5
v 0.5 -0.5 -0.5
v -0.5 0.5 0.5
v -0.5 0.5 -0.5
v -0.5 -0.5 0.5
v -0.5 -0.5 -0.5
vt 0.25 1
vt 0 1
vt 0 0.75
vt 0.25 0.75
vt 0.25 0.484375
vt 0.25 0.734375
vt 0 0.734375
vt 0 0.484375
vt 0.265625 0.75
vt 0.515625 0.75
vt 0.515625 1
vt 0.265625 1
vt 0.515625 0.484375
vt 0.515625 0.734375
vt 0.265625 0.734375
vt 0.265625 0.484375
vt 0.25 0.21875
vt 0.25 0.46875
vt 0 0.46875
vt 0 0.21875
vt 0.78125 1
vt 0.53125 1
vt 0.53125 0.75
vt 0.78125 0.75
vn 1 0 0
vn -1 0 0
vn 0 1 0
vn 0 -1 0
vn 0 0 1
vn 0 0 -1
usemtl m_aad6c3ff-6e8f-2b96-9a6c-ced55b95ede1
f 2/1/1 1/2/1 3/3/1 4/4/1
f 7/5/2 5/6/2 6/7/2 8/8/2
f 5/9/3 1/10/3 2/11/3 6/12/3
f 4/13/4 3/14/4 7/15/4 8/16/4
f 3/17/5 1/18/5 5/19/5 7/20/5
f 6/21/6 2/22/6 4/23/6 8/24/6
o cylinder
v 0.3682625801267566 0.5323824052564222 0.2581562393045438
v 0.08192153241319866 0.5602931577530043 -0.1507811572360226
v 0.3795516891750804 0.5635836791371092 0.2523810661368009
v 0.09321064146152253 0.5914944316336911 -0.1565563304037655
v 0.3971042520204393 0.5552236098135178 0.2395200387388788
v 0.11076320430688136 0.5831343623100999 -0.16941735780168765
v 0.40692842208095126 0.5407424745800135 0.23165271587569358
v 0.12058737436739336 0.5686532270765955 -0.1772846806648729
v 0.40639224232465493 0.524022335932831 0.23088697182548346
v 0.12005119461109698 0.551933088429413 -0.17805042471508292
v 0.39563931303262745 0.5095412006993265 0.2374278890434365
v 0.1092982653190695 0.5374519531959085 -0.1715095074971299
v 0.3775505704309723 0.5011811313757353 0.24952317239114846
v 0.09120952271741428 0.5290918838723173 -0.15941422414941797
v 0.3569734710784328 0.5011811313757353 0.26393141247228674
v 0.0706324233648748 0.5290918838723173 -0.1450059840682797
v 0.3394209082330739 0.5095412006993265 0.27679243987020885
v 0.053079860519515965 0.5374519531959085 -0.13214495667035753
v 0.32959673817256196 0.524022335932831 0.28465976273339405
v 0.04325569045900396 0.551933088429413 -0.12427763380717227
v 0.3301329179288583 0.5407424745800135 0.2854255067836042
v 0.043791870215300344 0.5686532270765955 -0.12351188975696226
v 0.3408858472208858 0.5552236098135178 0.2788845895656511
v 0.054544799507327824 0.5831343623100999 -0.13005280697491528
v 0.35897458982254093 0.5635836791371092 0.26678930621793917
v 0.07263354210898304 0.5914944316336911 -0.1421480903226272
vt 0.285921875 0.41978125
vt 0.280484375 0.421875
vt 0.27734375 0.4140625
vt 0.546109375 0.609375
vt 0.5519375 0.609375
vt 0.5519375 0.734375
vt 0.546109375 0.734375
vt 0.389859375 0.3125
vt 0.395296875 0.31459375
vt 0.38671875 0.3203125
vt 0.2890625 0.41615625
vt 0.285921875 0.41978125
vt 0.27734375 0.4140625
vt 0.515625 0.21875
vt 0.5234375 0.21875
vt 0.5234375 0.34375
vt 0.515625 0.34375
vt 0.395296875 0.31459375
vt 0.3984375 0.31821875
vt 0.38671875 0.3203125
vt 0.2890625 0.41196875
vt 0.2890625 0.41615625
vt 0.27734375 0.4140625
vt 0.421875 0.296875
vt 0.4296875 0.296875
vt 0.4296875 0.421875
vt 0.421875 0.421875
vt 0.3984375 0.31821875
vt 0.3984375 0.32240625
vt 0.38671875 0.3203125
vt 0.285921875 0.40834375
vt 0.2890625 0.41196875
vt 0.27734375 0.4140625
vt 0.484375 0.21875
vt 0.4921875 0.21875
vt 0.4921875 0.34375
vt 0.484375 0.34375
vt 0.3984375 0.32240625
vt 0.395296875 0.32603125
vt 0.38671875 0.3203125
vt 0.280484375 0.40625
vt 0.285921875 0.40834375
vt 0.27734375 0.4140625
vt 0.37775 0.34375
vt 0.383578125 0.34375
vt 0.383578125 0.46875
vt 0.37775 0.46875
vt 0.395296875 0.32603125
vt 0.389859375 0.328125
vt 0.38671875 0.3203125
vt 0.274203125 0.40625
vt 0.280484375 0.40625
vt 0.27734375 0.4140625
vt 0.383578125 0.34375
vt 0.389859375 0.34375
vt 0.389859375 0.46875
vt 0.383578125 0.46875
vt 0.389859375 0.328125
vt 0.383578125 0.328125
vt 0.38671875 0.3203125
vt 0.268765625 0.40834375
vt 0.274203125 0.40625
vt 0.27734375 0.4140625
vt 0.389859375 0.34375
vt 0.3956875 0.34375
vt 0.3956875 0.46875
vt 0.389859375 0.46875
vt 0.383578125 0.328125
vt 0.378140625 0.32603125
vt 0.38671875 0.3203125
vt 0.265625 0.41196875
vt 0.268765625 0.40834375
vt 0.27734375 0.4140625
vt 0.59375 0.28125
vt 0.6015625 0.28125
vt 0.6015625 0.40625
vt 0.59375 0.40625
vt 0.378140625 0.32603125
vt 0.375 0.32240625
vt 0.38671875 0.3203125
vt 0.265625 0.41615625
vt 0.265625 0.41196875
vt 0.27734375 0.4140625
vt 0.453125 0.296875
vt 0.4609375 0.296875
vt 0.4609375 0.421875
vt 0.453125 0.421875
vt 0.375 0.32240625
vt 0.375 0.31821875
vt 0.38671875 0.3203125
vt 0.268765625 0.41978125
vt 0.265625 0.41615625
vt 0.27734375 0.4140625
vt 0.625 0.28125
vt 0.6328125 0.28125
vt 0.6328125 0.40625
vt 0.625 0.40625
vt 0.375 0.31821875
vt 0.378140625 0.31459375
vt 0.38671875 0.3203125
vt 0.274203125 0.421875
vt 0.268765625 0.41978125
vt 0.27734375 0.4140625
vt 0.534 0.609375
vt 0.539828125 0.609375
vt 0.539828125 0.734375
vt 0.534 0.734375
vt 0.378140625 0.31459375
vt 0.383578125 0.3125
vt 0.38671875 0.3203125
vt 0.280484375 0.421875
vt 0.274203125 0.421875
vt 0.27734375 0.4140625
vt 0.539828125 0.609375
vt 0.546109375 0.609375
vt 0.546109375 0.734375
vt 0.539828125 0.734375
vt 0.383578125 0.3125
vt 0.389859375 0.3125
vt 0.38671875 0.3203125
vn 0.5726820954271158 -0.05582150499316402 0.817874793081133
vn 0.3241176072966136 0.9318067915635915 -0.1633520120362278
vn -0.5726820954271158 0.05582150499316402 -0.817874793081133
vn 0.5726820954271158 -0.05582150499316402 0.817874793081133
vn 0.6401938036631453 0.6536145946852028 -0.4036580921594569
vn -0.5726820954271158 0.05582150499316402 -0.817874793081133
vn 0.5726820954271158 -0.05582150499316402 0.817874793081133
vn 0.8191520442889918 0 -0.5735764363510462
vn -0.5726820954271158 0.05582150499316402 -0.817874793081133
vn 0.5726820954271158 -0.05582150499316402 0.817874793081133
vn 0.5982737070078337 -0.6536145946852027 -0.46352619464017675
vn -0.5726820954271158 0.05582150499316402 -0.817874793081133
vn 0.5726820954271158 -0.05582150499316402 0.817874793081133
vn 0.2643554308029347 -0.9318067915635915 -0.2487012452742457
vn -0.5726820954271158 0.05582150499316402 -0.817874793081133
vn 0.5726820954271158 -0.05582150499316402 0.817874793081133
vn -0.032017899905731145 -0.998440764181981 -0.045726299930438474
vn -0.5726820954271158 0.05582150499316402 -0.817874793081133
vn 0.5726820954271158 -0.05582150499316402 0.817874793081133
vn -0.3241176072966136 -0.9318067915635915 0.1633520120362278
vn -0.5726820954271158 0.05582150499316402 -0.817874793081133
vn 0.5726820954271158 -0.05582150499316402 0.817874793081133
vn -0.6401938036631453 -0.6536145946852028 0.4036580921594569
vn -0.5726820954271158 0.05582150499316402 -0.817874793081133
vn 0.5726820954271158 -0.05582150499316402 0.817874793081133
vn -0.8191520442889918 0 0.5735764363510462
vn -0.5726820954271158 0.05582150499316402 -0.817874793081133
vn 0.5726820954271158 -0.05582150499316402 0.817874793081133
vn -0.5982737070078337 0.6536145946852027 0.46352619464017675
vn -0.5726820954271158 0.05582150499316402 -0.817874793081133
vn 0.5726820954271158 -0.05582150499316402 0.817874793081133
vn -0.2643554308029347 0.9318067915635915 0.2487012452742457
vn -0.5726820954271158 0.05582150499316402 -0.817874793081133
vn 0.5726820954271158 -0.05582150499316402 0.817874793081133
vn 0.032017899905731145 0.998440764181981 0.045726299930438474
vn -0.5726820954271158 0.05582150499316402 -0.817874793081133
usemtl m_aad6c3ff-6e8f-2b96-9a6c-ced55b95ede1
f 13/25/7 11/26/7 9/27/7
f 11/28/8 13/29/8 14/30/8 12/31/8
f 12/32/9 14/33/9 10/34/9
f 15/35/10 13/36/10 9/37/10
f 13/38/11 15/39/11 16/40/11 14/41/11
f 14/42/12 16/43/12 10/44/12
f 17/45/13 15/46/13 9/47/13
f 15/48/14 17/49/14 18/50/14 16/51/14
f 16/52/15 18/53/15 10/54/15
f 19/55/16 17/56/16 9/57/16
f 17/58/17 19/59/17 20/60/17 18/61/17
f 18/62/18 20/63/18 10/64/18
f 21/65/19 19/66/19 9/67/19
f 19/68/20 21/69/20 22/70/20 20/71/20
f 20/72/21 22/73/21 10/74/21
f 23/75/22 21/76/22 9/77/22
f 21/78/23 23/79/23 24/80/23 22/81/23
f 22/82/24 24/83/24 10/84/24
f 25/85/25 23/86/25 9/87/25
f 23/88/26 25/89/26 26/90/26 24/91/26
f 24/92/27 26/93/27 10/94/27
f 27/95/28 25/96/28 9/97/28
f 25/98/29 27/99/29 28/100/29 26/101/29
f 26/102/30 28/103/30 10/104/30
f 29/105/31 27/106/31 9/107/31
f 27/108/32 29/109/32 30/110/32 28/111/32
f 28/112/33 30/113/33 10/114/33
f 31/115/34 29/116/34 9/117/34
f 29/118/35 31/119/35 32/120/35 30/121/35
f 30/122/36 32/123/36 10/124/36
f 33/125/37 31/126/37 9/127/37
f 31/128/38 33/129/38 34/130/38 32/131/38
f 32/132/39 34/133/39 10/134/39
f 11/135/40 33/136/40 9/137/40
f 33/138/41 11/139/41 12/140/41 34/141/41
f 34/142/42 12/143/42 10/144/42
o mesh
v 0.18631665669343078 0.6226957055143778 -0.21962031803425094
v 0.11473139476504131 0.6296733936385233 -0.32185466716939254
v 0.1823144192052144 0.4978906099916302 -0.22533610552555572
v 0.11072915727682493 0.5048682981157757 -0.32757045466069734
v -0.018471354378817154 0.6226957055143778 -0.07622620894648943
v -0.09005661630720664 0.6296733936385233 -0.17846055808163103
v -0.02247359186703353 0.4978906099916302 -0.0819419964377942
v -0.09405885379542302 0.5048682981157757 -0.18417634557293583
vt 0.296875 0.46875
vt 0.265625 0.46875
vt 0.265625 0.4375
vt 0.296875 0.4375
vt 0.6875 0.5625
vt 0.6875 0.59375
vt 0.65625 0.59375
vt 0.65625 0.5625
vt 0.421875 0.4375
vt 0.484375 0.4375
vt 0.484375 0.46875
vt 0.421875 0.46875
vt 0.65625 0.515625
vt 0.65625 0.546875
vt 0.59375 0.546875
vt 0.59375 0.515625
vt 0.65625 0.46875
vt 0.65625 0.5
vt 0.59375 0.5
vt 0.59375 0.46875
vt 0.65625 0.453125
vt 0.59375 0.453125
vt 0.59375 0.421875
vt 0.65625 0.421875
vn 0.8191520442889918 0 -0.5735764363510462
vn -0.8191520442889918 0 0.5735764363510462
vn 0.03201789990573101 0.998440764181981 0.045726299930438294
vn -0.03201789990573101 -0.998440764181981 -0.045726299930438294
vn 0.5726820954271158 -0.055821504993163795 0.817874793081133
vn -0.5726820954271158 0.055821504993163795 -0.817874793081133
usemtl m_aad6c3ff-6e8f-2b96-9a6c-ced55b95ede1
f 36/145/43 35/146/43 37/147/43 38/148/43
f 41/149/44 39/150/44 40/151/44 42/152/44
f 39/153/45 35/154/45 36/155/45 40/156/45
f 38/157/46 37/158/46 41/159/46 42/160/46
f 37/161/47 35/162/47 39/163/47 41/164/47
f 40/165/48 36/166/48 38/167/48 42/168/48
o pyramid
v -0.4058344059040605 0.5027539212613922 -0.41506693693292385
v -0.4002916640645374 0.5681207283221358 0.35522697356331256
v -0.037236298922747074 0.5681207283221357 0.26133447204289706
v -0.4002916640645374 0.5681207283221358 0.35522697356331256
v -0.037236298922747074 0.5681207283221357 0.26133447204289706
vt 0 0.90625
vt 0 0.90625
vt 0 1
vt 0 1
vt 0.48577453125 0.37634218750000004
vt 0.57672546875 0.35360437499999997
vt 0.57672546875 0.546875
vt 0 0.953125
vt 0 0.953125
vt 0 1
vt 0 1
vt 0 1
vt 0 0.953125
vt 0.26702453125 0.29821718750000004
vt 0.35797546875 0.27547937499999997
vt 0.35797546875 0.46875
vn 0 0 0
vn -0.021822055222526244 0.9961946980917455 -0.08437962668654649
vn 0 0 0
vn 0 0 0
vn 0.021822055222526244 -0.9961946980917455 0.08437962668654649
usemtl m_aad6c3ff-6e8f-2b96-9a6c-ced55b95ede1
f 44/169/49 46/170/49 45/171/49 47/172/49
f 44/173/50 45/174/50 43/175/50
f 46/176/51 44/177/51 43/178/51
f 45/179/52 47/180/52 43/181/52
f 47/182/53 46/183/53 43/184/53
o beveled_cuboid
v -0.0726144927235074 0.6386524290874552 0.35709179614742326
v -0.07979830669509025 0.626574162990902 0.2644010695081173
v -0.3529840430186416 0.6359881468113521 0.37916846635054524
v -0.36016785699022447 0.6239098807147988 0.2864777397112393
v -0.07017963805146765 0.5146998268415642 0.3730550000613612
v -0.0773634520230505 0.502621560745011 0.2803642734220553
v -0.35054918834660187 0.5120355445654611 0.39513167026448326
v -0.3577330023181847 0.4999572784689078 0.30244094362517726
v -0.3975818035631292 0.5270855728001802 0.39681571480909467
v -0.39940794456715906 0.6200500244845986 0.3848433118736412
v -0.4047656175347121 0.5150073067036269 0.3041249881697887
v -0.4065917585387419 0.6079717583880453 0.29215258523433524
v -0.02375573650295021 0.5306379491683177 0.36738015453826534
v -0.02558187750697999 0.6236024008527361 0.35540775160281185
v -0.030939550474533062 0.5185596830717645 0.27468942789895934
v -0.03276569147856284 0.6115241347561828 0.2627170249635059
v -0.07886511118565265 0.5161025916763218 0.2629204184929287
v -0.08069125218968243 0.6090670433607401 0.25094801555747526
v -0.35923466148078687 0.5134383094002186 0.2849970886960507
v -0.36106080248481665 0.606402761084637 0.27302468576059724
v -0.06928669255687547 0.5322069464717262 0.3865080540120033
v -0.07111283356090525 0.6251713981561444 0.37453565107654985
v -0.3496562428520097 0.5295426641956229 0.4085847242151253
v -0.3514823838560395 0.6225071158800413 0.39661232127967183
vt 0.6796875 0.40625
vt 0.65625 0.40625
vt 0.65625 0.3828125
vt 0.6796875 0.3828125
vt 0.6796875 0.3359375
vt 0.6796875 0.359375
vt 0.65625 0.359375
vt 0.65625 0.3359375
vt 0.61718828125 0.5703125
vt 0.61718828125 0.59375
vt 0.54687578125 0.59375
vt 0.54687578125 0.5703125
vt 0.59375078125 0.7109375
vt 0.66406328125 0.7109375
vt 0.66406328125 0.734375
vt 0.59375078125 0.734375
vt 0.66406328125 0.6640625
vt 0.66406328125 0.6875
vt 0.59375078125 0.6875
vt 0.59375078125 0.6640625
vt 0.66406171875 0.640625
vt 0.59374921875 0.640625
vt 0.59374921875 0.6171875
vt 0.66406171875 0.6171875
vt 0.61718828125 0.59375
vt 0.61718828125 0.5703125
vt 0.62953984375 0.5703125
vt 0.62953984375 0.59375
vt 0.53452265625 0.5703125
vt 0.54687578125 0.5703125
vt 0.54687578125 0.59375
vt 0.53452265625 0.59375
vt 0.7578128125 0.54135
vt 0.7578128125 0.546875
vt 0.6875003125 0.546875
vt 0.6875003125 0.54135
vt 0.7578121875 0.515625
vt 0.6874996875 0.515625
vt 0.6874996875 0.5101
vt 0.7578121875 0.5101
vt 0.67641484375 0.734375
vt 0.66406328125 0.734375
vt 0.66406328125 0.7109375
vt 0.67641484375 0.7109375
vt 0.59375078125 0.7109375
vt 0.59375078125 0.734375
vt 0.58139765625 0.734375
vt 0.58139765625 0.7109375
vt 0.6875003125 0.4765625
vt 0.7578128125 0.4765625
vt 0.7578128125 0.4820875
vt 0.6875003125 0.4820875
vt 0.6874996875 0.4508375
vt 0.6874996875 0.4453125
vt 0.7578121875 0.4453125
vt 0.7578121875 0.4508375
vt 0.58139765625 0.6171875
vt 0.59374921875 0.6171875
vt 0.59374921875 0.640625
vt 0.58139765625 0.640625
vt 0.66406328125 0.6875
vt 0.66406328125 0.6640625
vt 0.67641484375 0.6640625
vt 0.67641484375 0.6875
vt 0.66406171875 0.640625
vt 0.66406171875 0.6171875
vt 0.67641484375 0.6171875
vt 0.67641484375 0.640625
vt 0.58139765625 0.6640625
vt 0.59375078125 0.6640625
vt 0.59375078125 0.6875
vt 0.58139765625 0.6875
vt 0.7578128125 0.4765625
vt 0.7698521875 0.47932656250000005
vt 0.7578128125 0.48208656250000004
vt 0.6875003125 0.4765625
vt 0.6875003125 0.482086875
vt 0.6754603125 0.47932328125
vt 0.6874996875 0.4453125
vt 0.6874996875 0.45083656250000004
vt 0.6754603125 0.44807656250000005
vt 0.7578121875 0.4453125
vt 0.7698521875 0.44807328125
vt 0.7578121875 0.450836875
vt 0.7578128125 0.546875
vt 0.7578128125 0.5413509375000001
vt 0.7698521875 0.5441109375
vt 0.6875003125 0.546875
vt 0.6754603125 0.54411421875
vt 0.6875003125 0.541350625
vt 0.6874996875 0.515625
vt 0.6754603125 0.5128609375
vt 0.6874996875 0.5101009375000001
vt 0.7578121875 0.515625
vt 0.7578121875 0.510100625
vt 0.7698521875 0.51286421875
vn 0.9968695121604774 0.00947300364836682 -0.07849482738887822
vn -0.9968695121604774 -0.00947300364836682 0.07849482738887822
vn -0.019478837376317927 0.9916208179671286 -0.1277056313115038
vn 0.019478837376317927 -0.9916208179671286 0.1277056313115038
vn 0.07662734903021716 0.12883483836323467 0.9887010841525969
vn -0.07662734903021716 -0.12883483836323467 -0.9887010841525969
vn 0.296758571156448 0.9437297347857961 -0.14597444340128266
vn -0.33371706652515776 0.9377384812234114 -0.09632995558315813
vn 0.040410100125190584 0.7922817926100237 0.6088157232747193
vn -0.06795733612203934 0.6100818168905917 -0.789418759066866
vn 0.33371706652515776 -0.9377384812234114 0.09632995558315813
vn -0.296758571156448 -0.9437297347857961 0.14597444340128266
vn 0.06795733612203934 -0.6100818168905917 0.789418759066866
vn -0.040410100125190584 -0.7922817926100237 -0.6088157232747193
vn 0.24254273264194862 -0.11922783258104594 -0.9627864492090665
vn 0.38793290503965716 0.12521908614343072 0.913141961390942
vn -0.38793290503965716 -0.12521908614343072 -0.913141961390942
vn -0.24254273264194862 0.11922783258104594 0.9627864492090665
vn 0.29484236455735363 -0.591636779968228 0.7503558493481978
vn -0.16255273685361613 -0.5959832921361252 0.786371746209123
vn 0.189365247483416 -0.7689772139154082 -0.6105856594487307
vn -0.26802985392755385 -0.7733237260833055 -0.5745697625878056
vn 0.26802985392755385 0.7733237260833055 0.5745697625878056
vn -0.189365247483416 0.7689772139154082 0.6105856594487307
vn 0.16255273685361613 0.5959832921361252 -0.786371746209123
vn -0.29484236455735363 0.591636779968228 -0.7503558493481978
usemtl m_aad6c3ff-6e8f-2b96-9a6c-ced55b95ede1
f 63/185/54 61/186/54 60/187/54 62/188/54
f 56/189/55 57/190/55 59/191/55 58/192/55
f 48/193/56 49/194/56 51/195/56 50/196/56
f 55/197/57 53/198/57 52/199/57 54/200/57
f 68/201/58 69/202/58 71/203/58 70/204/58
f 67/205/59 65/206/59 64/207/59 66/208/59
f 49/209/60 48/210/60 61/211/60 63/212/60
f 57/213/61 50/214/61 51/215/61 59/216/61
f 69/217/62 48/218/62 50/219/62 71/220/62
f 51/221/63 49/222/63 65/223/63 67/224/63
f 60/225/64 52/226/64 53/227/64 62/228/64
f 55/229/65 54/230/65 56/231/65 58/232/65
f 54/233/66 52/234/66 68/235/66 70/236/66
f 64/237/67 53/238/67 55/239/67 66/240/67
f 62/241/68 64/242/68 65/243/68 63/244/68
f 69/245/69 68/246/69 60/247/69 61/248/69
f 67/249/70 66/250/70 58/251/70 59/252/70
f 56/253/71 70/254/71 71/255/71 57/256/71
f 52/257/72 60/258/72 68/259/72
f 54/260/73 70/261/73 56/262/73
f 53/263/74 64/264/74 62/265/74
f 55/266/75 58/267/75 66/268/75
f 48/269/76 69/270/76 61/271/76
f 50/272/77 57/273/77 71/274/77
f 49/275/78 63/276/78 65/277/78
f 51/278/79 67/279/79 59/280/79